<svg width="512" height="512" viewBox="0 0 512 512" xmlns="http://www.w3.org/2000/svg">
  <defs>
    <linearGradient id="grad1" x1="0%" y1="0%" x2="100%" y2="100%">
      <stop offset="0%" style="stop-color:#667eea;stop-opacity:1" />
      <stop offset="100%" style="stop-color:#764ba2;stop-opacity:1" />
    </linearGradient>
  </defs>

  <!-- Background -->
  <rect width="512" height="512" rx="55" fill="url(#grad1)"/>

  <!-- Medical Cross -->
  <g fill="white" opacity="0.9">
    <rect x="224" y="128" width="64" height="256" rx="12"/>
    <rect x="128" y="224" width="256" height="64" rx="12"/>
  </g>

  <!-- Stethoscope -->
  <g stroke="white" stroke-width="8" fill="none" opacity="0.8">
    <path d="M160 160 Q256 120 352 160"/>
    <circle cx="160" cy="160" r="20" stroke-width="6"/>
    <circle cx="352" cy="160" r="20" stroke-width="6"/>
    <path d="M256 120 L256 200"/>
    <circle cx="256" cy="215" r="15" fill="white"/>
  </g>

  <!-- Florence Nightingale Lamp -->
  <g fill="white" opacity="0.7">
    <ellipse cx="256" cy="375" rx="40" ry="20"/>
    <rect x="235" y="335" width="42" height="50" rx="6"/>
    <polygon points="240,320 272,320 268,335 244,335"/>
    <ellipse cx="256" cy="315" rx="20" ry="8" fill="#ffd700"/>
  </g>

  <!-- AI Circuit Pattern -->
  <g stroke="white" stroke-width="2" fill="none" opacity="0.3">
    <circle cx="100" cy="100" r="8"/>
    <circle cx="412" cy="100" r="8"/>
    <circle cx="100" cy="412" r="8"/>
    <circle cx="412" cy="412" r="8"/>
    <path d="M100 100 L150 100 L150 150"/>
    <path d="M412 100 L362 100 L362 150"/>
    <path d="M100 412 L150 412 L150 362"/>
    <path d="M412 412 L362 412 L362 362"/>
  </g>
</svg>
